{
  "accessors": [
    {
      "bufferView": 2,
      "componentType": 5126,
      "count": 4952,
      "max": [
        6.9903645515441895,
        0.35718506574630737,
        8.9474563598632812
      ],
      "min": [
        -6.9903645515441895,
        -0.18468374013900757,
        -8.9474563598632812
      ],
      "type": "VEC3"
    },
    {
      "bufferView": 2,
      "byteOffset": 59424,
      "componentType": 5126,
      "count": 4952,
      "max": [
        1,
        1,
        1
      ],
      "min": [
        -1,
        -1,
        -1
      ],
      "type": "VEC3"
    },
    {
      "bufferView": 1,
      "componentType": 5126,
      "count": 4952,
      "max": [
        0.99800801277160645,
        0.80157798528671265
      ],
      "min": [
        0.0019920321647077799,
        0.0015999560710042715
      ],
      "type": "VEC2"
    },
    {
      "bufferView": 0,
      "componentType": 5125,
      "count": 16044,
      "max": [
        4951
      ],
      "min": [
        0
      ],
      "type": "SCALAR"
    },
    {
      "bufferView": 2,
      "byteOffset": 118848,
      "componentType": 5126,
      "count": 880,
      "max": [
        6.9160661697387695,
        0.30944883823394775,
        8.8523569107055664
      ],
      "min": [
        -6.9160661697387695,
        -0.10984698683023453,
        -8.8523569107055664
      ],
      "type": "VEC3"
    },
    {
      "bufferView": 2,
      "byteOffset": 129408,
      "componentType": 5126,
      "count": 880,
      "max": [
        1,
        0,
        1
      ],
      "min": [
        -1,
        0,
        -1
      ],
      "type": "VEC3"
    },
    {
      "bufferView": 3,
      "componentType": 5126,
      "count": 880,
      "max": [
        1,
        0,
        1,
        1
      ],
      "min": [
        -0.80901795625686646,
        0,
        -1,
        -1
      ],
      "type": "VEC4"
    },
    {
      "bufferView": 1,
      "byteOffset": 39616,
      "componentType": 5126,
      "count": 880,
      "max": [
        0.98383837938308716,
        0.47214603424072266
      ],
      "min": [
        0.016161620616912842,
        0.24656689167022705
      ],
      "type": "VEC2"
    },
    {
      "bufferView": 0,
      "byteOffset": 64176,
      "componentType": 5125,
      "count": 2184,
      "max": [
        879
      ],
      "min": [
        0
      ],
      "type": "SCALAR"
    },
    {
      "bufferView": 2,
      "byteOffset": 139968,
      "componentType": 5126,
      "count": 9432,
      "max": [
        -6.4795308113098145,
        0.45026460289955139,
        8.5259256362915039
      ],
      "min": [
        -7.2175798416137695,
        -0.2877846360206604,
        -8.5586013793945312
      ],
      "type": "VEC3"
    },
    {
      "bufferView": 2,
      "byteOffset": 253152,
      "componentType": 5126,
      "count": 9432,
      "max": [
        1,
        1,
        1
      ],
      "min": [
        -1,
        -1,
        -1
      ],
      "type": "VEC3"
    },
    {
      "bufferView": 1,
      "byteOffset": 46656,
      "componentType": 5126,
      "count": 9432,
      "max": [
        0.99800801277160645,
        0.99330985546112061
      ],
      "min": [
        0.0019920321647077799,
        0.001982654444873333
      ],
      "type": "VEC2"
    },
    {
      "bufferView": 0,
      "byteOffset": 72912,
      "componentType": 5125,
      "count": 21816,
      "max": [
        9431
      ],
      "min": [
        0
      ],
      "type": "SCALAR"
    }
  ],
  "asset": {
    "extras": {
      "author": "ellieharrodine (https://sketchfab.com/ellieharrodine)",
      "license": "CC-BY-4.0 (http://creativecommons.org/licenses/by/4.0/)",
      "source": "https://sketchfab.com/3d-models/notepad-07141ec4d54b4485be1819a52e8ce7f6",
      "title": "Notepad"
    },
    "generator": "Sketchfab-8.86.0",
    "version": "2.0"
  },
  "bufferViews": [
    {
      "buffer": 0,
      "byteLength": 160176,
      "byteOffset": 0,
      "name": "floatBufferViews",
      "target": 34963
    },
    {
      "buffer": 0,
      "byteLength": 122112,
      "byteOffset": 160176,
      "byteStride": 8,
      "name": "floatBufferViews",
      "target": 34962
    },
    {
      "buffer": 0,
      "byteLength": 366336,
      "byteOffset": 282288,
      "byteStride": 12,
      "name": "floatBufferViews",
      "target": 34962
    },
    {
      "buffer": 0,
      "byteLength": 14080,
      "byteOffset": 648624,
      "byteStride": 16,
      "name": "floatBufferViews",
      "target": 34962
    }
  ],
  "buffers": [
    {
      "byteLength": 662704,
      "uri": "scene.bin"
    }
  ],
  "images": [
    {
      "uri": "textures/notepad_baseColor.png"
    },
    {
      "uri": "textures/notepad_metallicRoughness.png"
    },
    {
      "uri": "textures/Pages_baseColor.png"
    },
    {
      "uri": "textures/Pages_metallicRoughness.png"
    },
    {
      "uri": "textures/Pages_normal.png"
    },
    {
      "uri": "textures/rings_baseColor.png"
    },
    {
      "uri": "textures/rings_metallicRoughness.png"
    }
  ],
  "materials": [
    {
      "doubleSided": true,
      "emissiveFactor": [
        0,
        0,
        0
      ],
      "name": "notepad",
      "pbrMetallicRoughness": {
        "baseColorFactor": [
          1,
          1,
          1,
          1
        ],
        "baseColorTexture": {
          "index": 0,
          "texCoord": 0
        },
        "metallicFactor": 1,
        "metallicRoughnessTexture": {
          "index": 1,
          "texCoord": 0
        },
        "roughnessFactor": 0.89426287365594359
      }
    },
    {
      "doubleSided": true,
      "emissiveFactor": [
        0,
        0,
        0
      ],
      "name": "Pages",
      "normalTexture": {
        "index": 4,
        "scale": 1,
        "texCoord": 0
      },
      "pbrMetallicRoughness": {
        "baseColorFactor": [
          1,
          1,
          1,
          1
        ],
        "baseColorTexture": {
          "index": 2,
          "texCoord": 0
        },
        "metallicFactor": 1,
        "metallicRoughnessTexture": {
          "index": 3,
          "texCoord": 0
        },
        "roughnessFactor": 0.89426287365594359
      }
    },
    {
      "doubleSided": true,
      "emissiveFactor": [
        0,
        0,
        0
      ],
      "name": "rings",
      "pbrMetallicRoughness": {
        "baseColorFactor": [
          1,
          1,
          1,
          1
        ],
        "baseColorTexture": {
          "index": 5,
          "texCoord": 0
        },
        "metallicFactor": 1,
        "metallicRoughnessTexture": {
          "index": 6,
          "texCoord": 0
        },
        "roughnessFactor": 0.89426287365594359
      }
    }
  ],
  "meshes": [
    {
      "name": "pCube7_notepad_0",
      "primitives": [
        {
          "attributes": {
            "NORMAL": 1,
            "POSITION": 0,
            "TEXCOORD_0": 2
          },
          "indices": 3,
          "material": 0,
          "mode": 4
        }
      ]
    },
    {
      "name": "pCube7_Pages_0",
      "primitives": [
        {
          "attributes": {
            "NORMAL": 5,
            "POSITION": 4,
            "TANGENT": 6,
            "TEXCOORD_0": 7
          },
          "indices": 8,
          "material": 1,
          "mode": 4
        }
      ]
    },
    {
      "name": "pCube7_rings_0",
      "primitives": [
        {
          "attributes": {
            "NORMAL": 10,
            "POSITION": 9,
            "TEXCOORD_0": 11
          },
          "indices": 12,
          "material": 2,
          "mode": 4
        }
      ]
    }
  ],
  "nodes": [
    {
      "children": [
        1
      ],
      "name": "RootNode (gltf orientation matrix)",
      "rotation": [
        -0.70710678118654746,
        -0,
        -0,
        0.70710678118654757
      ]
    },
    {
      "children": [
        2
      ],
      "matrix": [
        0.018071437254548073,
        0,
        0,
        0,
        0,
        0.018071437254548073,
        0,
        0,
        0,
        0,
        0.018071437254548073,
        0,
        0,
        0,
        0,
        1
      ],
      "name": "RootNode (model correction matrix)"
    },
    {
      "children": [
        3
      ],
      "matrix": [
        1,
        0,
        0,
        0,
        0,
        0,
        1,
        0,
        0,
        -1,
        0,
        0,
        0,
        0,
        0,
        1
      ],
      "name": "056caf30c349477da0b20fdca6682909.fbx"
    },
    {
      "children": [
        4
      ],
      "name": "RootNode"
    },
    {
      "children": [
        5,
        6,
        7
      ],
      "name": "pCube7"
    },
    {
      "mesh": 0,
      "name": "pCube7_notepad_0"
    },
    {
      "mesh": 1,
      "name": "pCube7_Pages_0"
    },
    {
      "mesh": 2,
      "name": "pCube7_rings_0"
    }
  ],
  "samplers": [
    {
      "magFilter": 9729,
      "minFilter": 9987,
      "wrapS": 10497,
      "wrapT": 10497
    }
  ],
  "scene": 0,
  "scenes": [
    {
      "name": "OSG_Scene",
      "nodes": [
        0
      ]
    }
  ],
  "textures": [
    {
      "sampler": 0,
      "source": 0
    },
    {
      "sampler": 0,
      "source": 1
    },
    {
      "sampler": 0,
      "source": 2
    },
    {
      "sampler": 0,
      "source": 3
    },
    {
      "sampler": 0,
      "source": 4
    },
    {
      "sampler": 0,
      "source": 5
    },
    {
      "sampler": 0,
      "source": 6
    }
  ]
}

