{
  "accessors": [
    {
      "bufferView": 2,
      "componentType": 5126,
      "count": 48,
      "max": [
        4.5415620803833008,
        0,
        0.092792227864265442
      ],
      "min": [
        1.7405668497085571,
        -0.75456696748733521,
        -0.15840195119380951
      ],
      "type": "VEC3"
    },
    {
      "bufferView": 2,
      "byteOffset": 576,
      "componentType": 5126,
      "count": 48,
      "max": [
        1,
        1,
        1
      ],
      "min": [
        -1,
        -1,
        -1
      ],
      "type": "VEC3"
    },
    {
      "bufferView": 1,
      "componentType": 5126,
      "count": 48,
      "max": [
        1,
        1
      ],
      "min": [
        0,
        0
      ],
      "type": "VEC2"
    },
    {
      "bufferView": 0,
      "componentType": 5125,
      "count": 72,
      "max": [
        47
      ],
      "min": [
        0
      ],
      "type": "SCALAR"
    },
    {
      "bufferView": 2,
      "byteOffset": 1152,
      "componentType": 5126,
      "count": 24,
      "max": [
        1.0806498527526855,
        0,
        0.092792227864265442
      ],
      "min": [
        0.0019105672836303711,
        -0.75456696748733521,
        -0.15840195119380951
      ],
      "type": "VEC3"
    },
    {
      "bufferView": 2,
      "byteOffset": 1440,
      "componentType": 5126,
      "count": 24,
      "max": [
        1,
        1,
        1
      ],
      "min": [
        -1,
        -1,
        -1
      ],
      "type": "VEC3"
    },
    {
      "bufferView": 1,
      "byteOffset": 384,
      "componentType": 5126,
      "count": 24,
      "max": [
        1,
        1
      ],
      "min": [
        0,
        0
      ],
      "type": "VEC2"
    },
    {
      "bufferView": 0,
      "byteOffset": 288,
      "componentType": 5125,
      "count": 36,
      "max": [
        23
      ],
      "min": [
        0
      ],
      "type": "SCALAR"
    },
    {
      "bufferView": 2,
      "byteOffset": 1728,
      "componentType": 5126,
      "count": 9834,
      "max": [
        4.7276930809020996,
        2.2165501117706299,
        5.0665378570556641
      ],
      "min": [
        -2.771329402923584,
        -0.73437941074371338,
        -7.2891230583190918
      ],
      "type": "VEC3"
    },
    {
      "bufferView": 2,
      "byteOffset": 119736,
      "componentType": 5126,
      "count": 9834,
      "max": [
        1,
        0.9999997615814209,
        1
      ],
      "min": [
        -1,
        -1,
        -1
      ],
      "type": "VEC3"
    },
    {
      "bufferView": 0,
      "byteOffset": 432,
      "componentType": 5125,
      "count": 57696,
      "max": [
        9833
      ],
      "min": [
        0
      ],
      "type": "SCALAR"
    },
    {
      "bufferView": 2,
      "byteOffset": 237744,
      "componentType": 5126,
      "count": 5280,
      "max": [
        4.7327075004577637,
        1.4942703247070312,
        5.0747876167297363
      ],
      "min": [
        -2.7763457298278809,
        -0.24527385830879211,
        -7.2974104881286621
      ],
      "type": "VEC3"
    },
    {
      "bufferView": 2,
      "byteOffset": 301104,
      "componentType": 5126,
      "count": 5280,
      "max": [
        0.99999678134918213,
        0.98839861154556274,
        1
      ],
      "min": [
        -0.99999678134918213,
        -0.99949419498443604,
        -1
      ],
      "type": "VEC3"
    },
    {
      "bufferView": 0,
      "byteOffset": 231216,
      "componentType": 5125,
      "count": 30720,
      "max": [
        5279
      ],
      "min": [
        0
      ],
      "type": "SCALAR"
    },
    {
      "bufferView": 2,
      "byteOffset": 364464,
      "componentType": 5126,
      "count": 1688,
      "max": [
        1.4928210973739624,
        1.6712378263473511,
        -3.0757434368133545
      ],
      "min": [
        0.45279669761657715,
        -0.68330687284469604,
        -6.3203144073486328
      ],
      "type": "VEC3"
    },
    {
      "bufferView": 2,
      "byteOffset": 384720,
      "componentType": 5126,
      "count": 1688,
      "max": [
        1,
        1,
        0.99999994039535522
      ],
      "min": [
        -1,
        -1,
        -1
      ],
      "type": "VEC3"
    },
    {
      "bufferView": 0,
      "byteOffset": 354096,
      "componentType": 5125,
      "count": 9180,
      "max": [
        1687
      ],
      "min": [
        0
      ],
      "type": "SCALAR"
    },
    {
      "bufferView": 2,
      "byteOffset": 404976,
      "componentType": 5126,
      "count": 192,
      "max": [
        1.0207110643386841,
        2.0353925228118896,
        -1.3545552492141724
      ],
      "min": [
        0.92149603366851807,
        1.5673291683197021,
        -4.1252231597900391
      ],
      "type": "VEC3"
    },
    {
      "bufferView": 2,
      "byteOffset": 407280,
      "componentType": 5126,
      "count": 192,
      "max": [
        0.012932153418660164,
        0.99371236562728882,
        -0.11194507032632828
      ],
      "min": [
        -0.012800996191799641,
        0.9757770299911499,
        -0.21876785159111023
      ],
      "type": "VEC3"
    },
    {
      "bufferView": 0,
      "byteOffset": 390816,
      "componentType": 5125,
      "count": 288,
      "max": [
        191
      ],
      "min": [
        0
      ],
      "type": "SCALAR"
    },
    {
      "bufferView": 2,
      "byteOffset": 409584,
      "componentType": 5126,
      "count": 10641,
      "max": [
        0.96899783611297607,
        -0.0090751070529222488,
        2.6810886859893799
      ],
      "min": [
        -1.0169718265533447,
        -0.27499377727508545,
        -1.1000670194625854
      ],
      "type": "VEC3"
    },
    {
      "bufferView": 2,
      "byteOffset": 537276,
      "componentType": 5126,
      "count": 10641,
      "max": [
        1,
        1,
        1
      ],
      "min": [
        -1,
        -1,
        -1
      ],
      "type": "VEC3"
    },
    {
      "bufferView": 0,
      "byteOffset": 391968,
      "componentType": 5125,
      "count": 63360,
      "max": [
        10640
      ],
      "min": [
        0
      ],
      "type": "SCALAR"
    },
    {
      "bufferView": 2,
      "byteOffset": 664968,
      "componentType": 5126,
      "count": 1600,
      "max": [
        3.7592806816101074,
        0.028429025784134865,
        2.1948337554931641
      ],
      "min": [
        -3.9487049579620361,
        -0.073398448526859283,
        -0.85011303424835205
      ],
      "type": "VEC3"
    },
    {
      "bufferView": 2,
      "byteOffset": 684168,
      "componentType": 5126,
      "count": 1600,
      "max": [
        1.9024113839805068e-07,
        0.99944138526916504,
        0.033422958105802536
      ],
      "min": [
        -1.1024588530972323e-07,
        0.99944132566452026,
        0.033422604203224182
      ],
      "type": "VEC3"
    },
    {
      "bufferView": 1,
      "byteOffset": 576,
      "componentType": 5126,
      "count": 1600,
      "max": [
        0.97111433744430542,
        0.93988817930221558
      ],
      "min": [
        0.01392132043838501,
        0.068595409393310547
      ],
      "type": "VEC2"
    },
    {
      "bufferView": 0,
      "byteOffset": 645408,
      "componentType": 5125,
      "count": 2400,
      "max": [
        1599
      ],
      "min": [
        0
      ],
      "type": "SCALAR"
    },
    {
      "bufferView": 2,
      "byteOffset": 703368,
      "componentType": 5126,
      "count": 20674,
      "max": [
        7.3458070755004883,
        0.0074322973378002644,
        1.8796035051345825
      ],
      "min": [
        -0.15211917459964752,
        -0.080993622541427612,
        -0.89849817752838135
      ],
      "type": "VEC3"
    },
    {
      "bufferView": 2,
      "byteOffset": 951456,
      "componentType": 5126,
      "count": 20674,
      "max": [
        0.31660920381546021,
        0.99999964237213135,
        0.37129595875740051
      ],
      "min": [
        -0.34007686376571655,
        0.88840311765670776,
        -0.28474292159080505
      ],
      "type": "VEC3"
    },
    {
      "bufferView": 1,
      "byteOffset": 13376,
      "componentType": 5126,
      "count": 20674,
      "max": [
        0.9424627423286438,
        0.88336527347564697
      ],
      "min": [
        0.059889324009418488,
        0.13503095507621765
      ],
      "type": "VEC2"
    },
    {
      "bufferView": 0,
      "byteOffset": 655008,
      "componentType": 5125,
      "count": 88704,
      "max": [
        20673
      ],
      "min": [
        0
      ],
      "type": "SCALAR"
    },
    {
      "bufferView": 2,
      "byteOffset": 1199544,
      "componentType": 5126,
      "count": 65532,
      "max": [
        7.3552455902099609,
        -0.0023505841381847858,
        1.8892189264297485
      ],
      "min": [
        -0.16083084046840668,
        -0.1367906779050827,
        -0.44172880053520203
      ],
      "type": "VEC3"
    },
    {
      "bufferView": 2,
      "byteOffset": 1985928,
      "componentType": 5126,
      "count": 65532,
      "max": [
        1,
        0.96131479740142822,
        0.9994577169418335
      ],
      "min": [
        -1,
        -0.03341878205537796,
        -0.999442458152771
      ],
      "type": "VEC3"
    },
    {
      "bufferView": 1,
      "byteOffset": 178768,
      "componentType": 5126,
      "count": 65532,
      "max": [
        0.94445067644119263,
        0.75542038679122925
      ],
      "min": [
        0.056546404957771301,
        0.13336814939975739
      ],
      "type": "VEC2"
    },
    {
      "bufferView": 0,
      "byteOffset": 1009824,
      "componentType": 5125,
      "count": 226401,
      "max": [
        65531
      ],
      "min": [
        0
      ],
      "type": "SCALAR"
    },
    {
      "bufferView": 2,
      "byteOffset": 2772312,
      "componentType": 5126,
      "count": 3413,
      "max": [
        7.3520712852478027,
        0.0057734730653464794,
        1.7361619472503662
      ],
      "min": [
        -0.067259475588798523,
        -0.1316724568605423,
        -0.91599452495574951
      ],
      "type": "VEC3"
    },
    {
      "bufferView": 2,
      "byteOffset": 2813268,
      "componentType": 5126,
      "count": 3413,
      "max": [
        1,
        0.99253809452056885,
        0.9994577169418335
      ],
      "min": [
        -1,
        -0.033418785780668259,
        -0.99944150447845459
      ],
      "type": "VEC3"
    },
    {
      "bufferView": 1,
      "byteOffset": 703024,
      "componentType": 5126,
      "count": 3413,
      "max": [
        0.94407671689987183,
        0.88673728704452515
      ],
      "min": [
        0.063011102378368378,
        0.17420811951160431
      ],
      "type": "VEC2"
    },
    {
      "bufferView": 0,
      "byteOffset": 1915428,
      "componentType": 5125,
      "count": 13215,
      "max": [
        3412
      ],
      "min": [
        0
      ],
      "type": "SCALAR"
    }
  ],
  "asset": {
    "extras": {
      "author": "gorzi (https://sketchfab.com/gorzi90)",
      "license": "CC-BY-4.0 (http://creativecommons.org/licenses/by/4.0/)",
      "source": "https://sketchfab.com/3d-models/mouse-and-keyboard-c63ee81b71ff45b68a778101b4df3d46",
      "title": "Mouse and Keyboard"
    },
    "generator": "Sketchfab-8.75.0",
    "version": "2.0"
  },
  "bufferViews": [
    {
      "buffer": 0,
      "byteLength": 1968288,
      "byteOffset": 0,
      "name": "floatBufferViews",
      "target": 34963
    },
    {
      "buffer": 0,
      "byteLength": 730328,
      "byteOffset": 1968288,
      "byteStride": 8,
      "name": "floatBufferViews",
      "target": 34962
    },
    {
      "buffer": 0,
      "byteLength": 2854224,
      "byteOffset": 2698616,
      "byteStride": 12,
      "name": "floatBufferViews",
      "target": 34962
    }
  ],
  "buffers": [
    {
      "byteLength": 5552840,
      "uri": "scene.bin"
    }
  ],
  "images": [
    {
      "uri": "textures/klawiatura_klawisze_baseColor.png"
    }
  ],
  "materials": [
    {
      "alphaMode": "BLEND",
      "doubleSided": true,
      "emissiveFactor": [
        0,
        0,
        0
      ],
      "name": "Material.001",
      "pbrMetallicRoughness": {
        "baseColorFactor": [
          0.16264200000000001,
          0.16264200000000001,
          0.16264200000000001,
          0.14763420462214766
        ],
        "metallicFactor": 0,
        "roughnessFactor": 0.5
      }
    },
    {
      "doubleSided": true,
      "emissiveFactor": [
        1,
        1,
        0.55961930974665508
      ],
      "name": "Material.002",
      "pbrMetallicRoughness": {
        "baseColorFactor": [
          0.40835800000000011,
          0.79999999999999993,
          0.19836500000000004,
          1
        ],
        "metallicFactor": 0,
        "roughnessFactor": 0.5
      }
    },
    {
      "doubleSided": true,
      "emissiveFactor": [
        0,
        0,
        0
      ],
      "name": "plastik_mat.001",
      "pbrMetallicRoughness": {
        "baseColorFactor": [
          0.0305635,
          0.0305635,
          0.0305635,
          1
        ],
        "metallicFactor": 0,
        "roughnessFactor": 0.52460494074871256
      }
    },
    {
      "doubleSided": true,
      "emissiveFactor": [
        0,
        0,
        0
      ],
      "name": "plastik_polysk.002",
      "pbrMetallicRoughness": {
        "baseColorFactor": [
          0.011307299999999999,
          0.011307299999999999,
          0.011307299999999999,
          1
        ],
        "metallicFactor": 0,
        "roughnessFactor": 0.27531784105211315
      }
    },
    {
      "doubleSided": true,
      "emissiveFactor": [
        0,
        0,
        0
      ],
      "name": "guma",
      "pbrMetallicRoughness": {
        "baseColorFactor": [
          0.060719599999999999,
          0.060719599999999999,
          0.060719599999999999,
          1
        ],
        "metallicFactor": 0,
        "roughnessFactor": 0.57324632605536607
      }
    },
    {
      "doubleSided": true,
      "emissiveFactor": [
        0,
        0,
        0
      ],
      "name": "plastik_polysk.001",
      "pbrMetallicRoughness": {
        "baseColorFactor": [
          0.017173000000000001,
          0.017173000000000001,
          0.017173000000000001,
          1
        ],
        "metallicFactor": 0,
        "roughnessFactor": 0.24491697523545472
      }
    },
    {
      "doubleSided": true,
      "emissiveFactor": [
        0,
        0,
        0
      ],
      "name": "plastik_polysk.klawiatura",
      "pbrMetallicRoughness": {
        "baseColorFactor": [
          0.011087700000000001,
          0.011087700000000001,
          0.011087700000000001,
          1
        ],
        "metallicFactor": 0,
        "roughnessFactor": 0.74957134779198509
      }
    },
    {
      "doubleSided": true,
      "name": "klawiatura_klawisze",
      "pbrMetallicRoughness": {
        "baseColorFactor": [
          1,
          1,
          1,
          1
        ],
        "baseColorTexture": {
          "index": 0,
          "texCoord": 0
        },
        "metallicFactor": 0,
        "roughnessFactor": 0.28139801421544486
      }
    },
    {
      "doubleSided": true,
      "emissiveFactor": [
        0,
        0,
        0
      ],
      "name": "Material.011",
      "pbrMetallicRoughness": {
        "baseColorFactor": [
          0,
          0,
          0,
          1
        ],
        "metallicFactor": 0,
        "roughnessFactor": 0.28139801421544486
      }
    }
  ],
  "meshes": [
    {
      "primitives": [
        {
          "attributes": {
            "NORMAL": 1,
            "POSITION": 0,
            "TEXCOORD_0": 2
          },
          "indices": 3,
          "material": 0,
          "mode": 4
        }
      ]
    },
    {
      "primitives": [
        {
          "attributes": {
            "NORMAL": 5,
            "POSITION": 4,
            "TEXCOORD_0": 6
          },
          "indices": 7,
          "material": 1,
          "mode": 4
        }
      ]
    },
    {
      "primitives": [
        {
          "attributes": {
            "NORMAL": 9,
            "POSITION": 8
          },
          "indices": 10,
          "material": 2,
          "mode": 4
        }
      ]
    },
    {
      "primitives": [
        {
          "attributes": {
            "NORMAL": 12,
            "POSITION": 11
          },
          "indices": 13,
          "material": 3,
          "mode": 4
        }
      ]
    },
    {
      "primitives": [
        {
          "attributes": {
            "NORMAL": 15,
            "POSITION": 14
          },
          "indices": 16,
          "material": 4,
          "mode": 4
        }
      ]
    },
    {
      "primitives": [
        {
          "attributes": {
            "NORMAL": 18,
            "POSITION": 17
          },
          "indices": 19,
          "material": 1,
          "mode": 4
        }
      ]
    },
    {
      "primitives": [
        {
          "attributes": {
            "NORMAL": 21,
            "POSITION": 20
          },
          "indices": 22,
          "material": 5,
          "mode": 4
        }
      ]
    },
    {
      "primitives": [
        {
          "attributes": {
            "NORMAL": 24,
            "POSITION": 23,
            "TEXCOORD_0": 25
          },
          "indices": 26,
          "material": 6,
          "mode": 4
        }
      ]
    },
    {
      "primitives": [
        {
          "attributes": {
            "NORMAL": 28,
            "POSITION": 27,
            "TEXCOORD_0": 29
          },
          "indices": 30,
          "material": 7,
          "mode": 4
        }
      ]
    },
    {
      "primitives": [
        {
          "attributes": {
            "NORMAL": 32,
            "POSITION": 31,
            "TEXCOORD_0": 33
          },
          "indices": 34,
          "material": 8,
          "mode": 4
        }
      ]
    },
    {
      "primitives": [
        {
          "attributes": {
            "NORMAL": 36,
            "POSITION": 35,
            "TEXCOORD_0": 37
          },
          "indices": 38,
          "material": 8,
          "mode": 4
        }
      ]
    }
  ],
  "nodes": [
    {
      "children": [
        1
      ],
      "name": "RootNode (gltf orientation matrix)",
      "rotation": [
        -0.70710678118654746,
        -0,
        -0,
        0.70710678118654757
      ]
    },
    {
      "children": [
        2
      ],
      "name": "RootNode (model correction matrix)"
    },
    {
      "children": [
        3
      ],
      "name": "root"
    },
    {
      "children": [
        4,
        7,
        12,
        14,
        16
      ],
      "matrix": [
        1,
        0,
        0,
        0,
        0,
        2.2204460492503131e-16,
        1,
        0,
        0,
        -1,
        2.2204460492503131e-16,
        0,
        0,
        0,
        0,
        1
      ],
      "name": "GLTF_SceneRootNode"
    },
    {
      "children": [
        5,
        6
      ],
      "matrix": [
        0.12804442644119263,
        0,
        0,
        0,
        0,
        0.025122523307800293,
        0,
        0,
        0,
        0,
        0.12804442644119263,
        0,
        5.2793540954589844,
        -2.5825216770172119,
        -4.3836002349853516,
        1
      ],
      "name": "Plane_0"
    },
    {
      "mesh": 0,
      "name": ""
    },
    {
      "mesh": 1,
      "name": ""
    },
    {
      "children": [
        8,
        9,
        10,
        11
      ],
      "matrix": [
        0.15623405962640044,
        -0,
        -0.065962823886016,
        0,
        0,
        0.21893925964832306,
        -0,
        0,
        0.065962823886016,
        0,
        0.15623405962640044,
        0,
        8.5245094299316406,
        -2.6750228404998779,
        -2.3114340305328369,
        1
      ],
      "name": "Plane.015_1"
    },
    {
      "mesh": 2,
      "name": ""
    },
    {
      "mesh": 3,
      "name": ""
    },
    {
      "mesh": 4,
      "name": ""
    },
    {
      "mesh": 5,
      "name": ""
    },
    {
      "children": [
        13
      ],
      "matrix": [
        3.9487044811248779,
        0,
        0,
        0,
        0,
        1.055425141220693,
        0.035294960204445724,
        0,
        0,
        -0.028429021321984032,
        0.85011298127888857,
        0,
        2.6328198909759521,
        -2.5909647941589355,
        -3.7629609107971191,
        1
      ],
      "name": "Plane.027_2"
    },
    {
      "mesh": 6,
      "name": ""
    },
    {
      "children": [
        15
      ],
      "matrix": [
        1,
        0,
        0,
        0,
        0,
        1,
        0,
        0,
        0,
        0,
        1,
        0,
        2.6328198909759521,
        -2.609365701675415,
        -3.7635760307312012,
        1
      ],
      "name": "Plane.026_3"
    },
    {
      "mesh": 7,
      "name": ""
    },
    {
      "children": [
        17,
        18,
        19
      ],
      "matrix": [
        1,
        0,
        0,
        0,
        0,
        1,
        0,
        0,
        0,
        0,
        1,
        0,
        -1.0616297721862793,
        -2.5719113349914551,
        -3.6159951686859131,
        1
      ],
      "name": "Plane.017_4"
    },
    {
      "mesh": 8,
      "name": ""
    },
    {
      "mesh": 9,
      "name": ""
    },
    {
      "mesh": 10,
      "name": ""
    }
  ],
  "samplers": [
    {
      "magFilter": 9729,
      "minFilter": 9987,
      "wrapS": 10497,
      "wrapT": 10497
    }
  ],
  "scene": 0,
  "scenes": [
    {
      "name": "OSG_Scene",
      "nodes": [
        0
      ]
    }
  ],
  "textures": [
    {
      "sampler": 0,
      "source": 0
    }
  ]
}

